<mxfile host="app.diagrams.net" agent="Mozilla/5.0 (Windows NT 10.0; Win64; x64) AppleWebKit/537.36 (KHTML, like Gecko) Chrome/134.0.0.0 Safari/537.36" version="26.2.10">
  <diagram name="Page-1" id="dh0XsOsVoTw7z1QN0Exu">
    <mxGraphModel dx="1283" dy="658" grid="1" gridSize="10" guides="1" tooltips="1" connect="1" arrows="1" fold="1" page="1" pageScale="1" pageWidth="850" pageHeight="1100" math="0" shadow="0">
      <root>
        <mxCell id="0" />
        <mxCell id="1" parent="0" />
        <mxCell id="CxGlsvQ1qdy4M_4wq2__-8" value="" style="rounded=0;whiteSpace=wrap;html=1;fillColor=#FFF2CC;" parent="1" vertex="1">
          <mxGeometry x="170" y="50" width="290" height="100" as="geometry" />
        </mxCell>
        <mxCell id="CxGlsvQ1qdy4M_4wq2__-1" value="&lt;b&gt;At First Data Load and when new SDN data is added:&lt;/b&gt;" style="text;html=1;align=center;verticalAlign=middle;resizable=0;points=[];autosize=1;strokeColor=none;fillColor=none;" parent="1" vertex="1">
          <mxGeometry x="30" y="10" width="320" height="30" as="geometry" />
        </mxCell>
        <mxCell id="CxGlsvQ1qdy4M_4wq2__-4" value="" style="edgeStyle=orthogonalEdgeStyle;rounded=0;orthogonalLoop=1;jettySize=auto;html=1;" parent="1" source="CxGlsvQ1qdy4M_4wq2__-2" target="CxGlsvQ1qdy4M_4wq2__-3" edge="1">
          <mxGeometry relative="1" as="geometry" />
        </mxCell>
        <mxCell id="CxGlsvQ1qdy4M_4wq2__-2" value="CSV or XML SDN file" style="rounded=0;whiteSpace=wrap;html=1;" parent="1" vertex="1">
          <mxGeometry x="30" y="60" width="120" height="60" as="geometry" />
        </mxCell>
        <mxCell id="CxGlsvQ1qdy4M_4wq2__-6" value="" style="edgeStyle=orthogonalEdgeStyle;rounded=0;orthogonalLoop=1;jettySize=auto;html=1;" parent="1" source="CxGlsvQ1qdy4M_4wq2__-3" target="CxGlsvQ1qdy4M_4wq2__-5" edge="1">
          <mxGeometry relative="1" as="geometry" />
        </mxCell>
        <mxCell id="CxGlsvQ1qdy4M_4wq2__-3" value="Load Data in Bedrock&lt;div&gt;API&amp;nbsp;&lt;/div&gt;" style="whiteSpace=wrap;html=1;rounded=0;" parent="1" vertex="1">
          <mxGeometry x="180" y="60" width="120" height="60" as="geometry" />
        </mxCell>
        <mxCell id="J7_ryv0EH3ggTm8qYIXI-4" style="edgeStyle=orthogonalEdgeStyle;rounded=0;orthogonalLoop=1;jettySize=auto;html=1;exitX=1;exitY=0.5;exitDx=0;exitDy=0;" edge="1" parent="1" source="CxGlsvQ1qdy4M_4wq2__-5" target="J7_ryv0EH3ggTm8qYIXI-3">
          <mxGeometry relative="1" as="geometry" />
        </mxCell>
        <mxCell id="CxGlsvQ1qdy4M_4wq2__-5" value="Test Data in Bedrock Knowledge Base&lt;div&gt;API&lt;/div&gt;" style="whiteSpace=wrap;html=1;rounded=0;" parent="1" vertex="1">
          <mxGeometry x="330" y="60" width="120" height="60" as="geometry" />
        </mxCell>
        <mxCell id="CxGlsvQ1qdy4M_4wq2__-9" value="Already existing APIs are called - Recon Report" style="text;html=1;align=center;verticalAlign=middle;resizable=0;points=[];autosize=1;strokeColor=none;fillColor=none;" parent="1" vertex="1">
          <mxGeometry x="170" y="120" width="280" height="30" as="geometry" />
        </mxCell>
        <mxCell id="J7_ryv0EH3ggTm8qYIXI-3" value="" style="sketch=0;outlineConnect=0;fontColor=#232F3E;gradientColor=none;fillColor=#C925D1;strokeColor=none;dashed=0;verticalLabelPosition=bottom;verticalAlign=top;align=center;html=1;fontSize=12;fontStyle=0;aspect=fixed;pointerEvents=1;shape=mxgraph.aws4.rds_mysql_instance;" vertex="1" parent="1">
          <mxGeometry x="540" y="51" width="78" height="78" as="geometry" />
        </mxCell>
        <mxCell id="J7_ryv0EH3ggTm8qYIXI-5" value="SDN Data" style="text;html=1;align=center;verticalAlign=middle;resizable=0;points=[];autosize=1;strokeColor=none;fillColor=none;" vertex="1" parent="1">
          <mxGeometry x="460" y="60" width="80" height="30" as="geometry" />
        </mxCell>
        <mxCell id="J7_ryv0EH3ggTm8qYIXI-6" value="SDN Data" style="shape=table;startSize=30;container=1;collapsible=1;childLayout=tableLayout;fixedRows=1;rowLines=0;fontStyle=1;align=center;resizeLast=1;html=1;" vertex="1" parent="1">
          <mxGeometry x="680" y="15" width="120" height="190" as="geometry">
            <mxRectangle x="680" y="15" width="90" height="30" as="alternateBounds" />
          </mxGeometry>
        </mxCell>
        <mxCell id="J7_ryv0EH3ggTm8qYIXI-7" value="" style="shape=tableRow;horizontal=0;startSize=0;swimlaneHead=0;swimlaneBody=0;fillColor=none;collapsible=0;dropTarget=0;points=[[0,0.5],[1,0.5]];portConstraint=eastwest;top=0;left=0;right=0;bottom=1;" vertex="1" parent="J7_ryv0EH3ggTm8qYIXI-6">
          <mxGeometry y="30" width="120" height="30" as="geometry" />
        </mxCell>
        <mxCell id="J7_ryv0EH3ggTm8qYIXI-8" value="PK" style="shape=partialRectangle;connectable=0;fillColor=none;top=0;left=0;bottom=0;right=0;fontStyle=1;overflow=hidden;whiteSpace=wrap;html=1;" vertex="1" parent="J7_ryv0EH3ggTm8qYIXI-7">
          <mxGeometry width="30" height="30" as="geometry">
            <mxRectangle width="30" height="30" as="alternateBounds" />
          </mxGeometry>
        </mxCell>
        <mxCell id="J7_ryv0EH3ggTm8qYIXI-9" value="ID" style="shape=partialRectangle;connectable=0;fillColor=none;top=0;left=0;bottom=0;right=0;align=left;spacingLeft=6;fontStyle=5;overflow=hidden;whiteSpace=wrap;html=1;" vertex="1" parent="J7_ryv0EH3ggTm8qYIXI-7">
          <mxGeometry x="30" width="90" height="30" as="geometry">
            <mxRectangle width="90" height="30" as="alternateBounds" />
          </mxGeometry>
        </mxCell>
        <mxCell id="J7_ryv0EH3ggTm8qYIXI-10" value="" style="shape=tableRow;horizontal=0;startSize=0;swimlaneHead=0;swimlaneBody=0;fillColor=none;collapsible=0;dropTarget=0;points=[[0,0.5],[1,0.5]];portConstraint=eastwest;top=0;left=0;right=0;bottom=0;" vertex="1" parent="J7_ryv0EH3ggTm8qYIXI-6">
          <mxGeometry y="60" width="120" height="20" as="geometry" />
        </mxCell>
        <mxCell id="J7_ryv0EH3ggTm8qYIXI-11" value="" style="shape=partialRectangle;connectable=0;fillColor=none;top=0;left=0;bottom=0;right=0;editable=1;overflow=hidden;whiteSpace=wrap;html=1;" vertex="1" parent="J7_ryv0EH3ggTm8qYIXI-10">
          <mxGeometry width="30" height="20" as="geometry">
            <mxRectangle width="30" height="20" as="alternateBounds" />
          </mxGeometry>
        </mxCell>
        <mxCell id="J7_ryv0EH3ggTm8qYIXI-12" value="Name" style="shape=partialRectangle;connectable=0;fillColor=none;top=0;left=0;bottom=0;right=0;align=left;spacingLeft=6;overflow=hidden;whiteSpace=wrap;html=1;" vertex="1" parent="J7_ryv0EH3ggTm8qYIXI-10">
          <mxGeometry x="30" width="90" height="20" as="geometry">
            <mxRectangle width="90" height="20" as="alternateBounds" />
          </mxGeometry>
        </mxCell>
        <mxCell id="J7_ryv0EH3ggTm8qYIXI-13" value="" style="shape=tableRow;horizontal=0;startSize=0;swimlaneHead=0;swimlaneBody=0;fillColor=none;collapsible=0;dropTarget=0;points=[[0,0.5],[1,0.5]];portConstraint=eastwest;top=0;left=0;right=0;bottom=0;" vertex="1" parent="J7_ryv0EH3ggTm8qYIXI-6">
          <mxGeometry y="80" width="120" height="30" as="geometry" />
        </mxCell>
        <mxCell id="J7_ryv0EH3ggTm8qYIXI-14" value="" style="shape=partialRectangle;connectable=0;fillColor=none;top=0;left=0;bottom=0;right=0;editable=1;overflow=hidden;whiteSpace=wrap;html=1;" vertex="1" parent="J7_ryv0EH3ggTm8qYIXI-13">
          <mxGeometry width="30" height="30" as="geometry">
            <mxRectangle width="30" height="30" as="alternateBounds" />
          </mxGeometry>
        </mxCell>
        <mxCell id="J7_ryv0EH3ggTm8qYIXI-15" value="Filename" style="shape=partialRectangle;connectable=0;fillColor=none;top=0;left=0;bottom=0;right=0;align=left;spacingLeft=6;overflow=hidden;whiteSpace=wrap;html=1;" vertex="1" parent="J7_ryv0EH3ggTm8qYIXI-13">
          <mxGeometry x="30" width="90" height="30" as="geometry">
            <mxRectangle width="90" height="30" as="alternateBounds" />
          </mxGeometry>
        </mxCell>
        <mxCell id="J7_ryv0EH3ggTm8qYIXI-16" value="" style="shape=tableRow;horizontal=0;startSize=0;swimlaneHead=0;swimlaneBody=0;fillColor=none;collapsible=0;dropTarget=0;points=[[0,0.5],[1,0.5]];portConstraint=eastwest;top=0;left=0;right=0;bottom=0;" vertex="1" parent="J7_ryv0EH3ggTm8qYIXI-6">
          <mxGeometry y="110" width="120" height="35" as="geometry" />
        </mxCell>
        <mxCell id="J7_ryv0EH3ggTm8qYIXI-17" value="" style="shape=partialRectangle;connectable=0;fillColor=none;top=0;left=0;bottom=0;right=0;editable=1;overflow=hidden;whiteSpace=wrap;html=1;" vertex="1" parent="J7_ryv0EH3ggTm8qYIXI-16">
          <mxGeometry width="30" height="35" as="geometry">
            <mxRectangle width="30" height="35" as="alternateBounds" />
          </mxGeometry>
        </mxCell>
        <mxCell id="J7_ryv0EH3ggTm8qYIXI-18" value="Start Date = today" style="shape=partialRectangle;connectable=0;fillColor=none;top=0;left=0;bottom=0;right=0;align=left;spacingLeft=6;overflow=hidden;whiteSpace=wrap;html=1;" vertex="1" parent="J7_ryv0EH3ggTm8qYIXI-16">
          <mxGeometry x="30" width="90" height="35" as="geometry">
            <mxRectangle width="90" height="35" as="alternateBounds" />
          </mxGeometry>
        </mxCell>
        <mxCell id="J7_ryv0EH3ggTm8qYIXI-19" value="" style="endArrow=classic;startArrow=classic;html=1;rounded=0;entryX=0;entryY=0.5;entryDx=0;entryDy=0;exitX=1.054;exitY=0.436;exitDx=0;exitDy=0;exitPerimeter=0;" edge="1" parent="1" source="J7_ryv0EH3ggTm8qYIXI-3" target="J7_ryv0EH3ggTm8qYIXI-10">
          <mxGeometry width="50" height="50" relative="1" as="geometry">
            <mxPoint x="400" y="370" as="sourcePoint" />
            <mxPoint x="450" y="320" as="targetPoint" />
          </mxGeometry>
        </mxCell>
        <mxCell id="J7_ryv0EH3ggTm8qYIXI-20" value="End Date = null or infinity" style="shape=partialRectangle;connectable=0;fillColor=none;top=0;left=0;bottom=0;right=0;align=left;spacingLeft=6;overflow=hidden;whiteSpace=wrap;html=1;" vertex="1" parent="1">
          <mxGeometry x="710" y="160" width="90" height="40" as="geometry">
            <mxRectangle width="90" height="30" as="alternateBounds" />
          </mxGeometry>
        </mxCell>
        <mxCell id="J7_ryv0EH3ggTm8qYIXI-21" value="" style="endArrow=none;html=1;rounded=0;exitX=0.25;exitY=1;exitDx=0;exitDy=0;" edge="1" parent="1" source="J7_ryv0EH3ggTm8qYIXI-6">
          <mxGeometry width="50" height="50" relative="1" as="geometry">
            <mxPoint x="400" y="370" as="sourcePoint" />
            <mxPoint x="710" y="160" as="targetPoint" />
          </mxGeometry>
        </mxCell>
        <mxCell id="J7_ryv0EH3ggTm8qYIXI-22" value="&lt;b&gt;After SDN data is deleted:&lt;/b&gt;" style="text;html=1;align=center;verticalAlign=middle;resizable=0;points=[];autosize=1;strokeColor=none;fillColor=none;" vertex="1" parent="1">
          <mxGeometry x="40" y="240" width="170" height="30" as="geometry" />
        </mxCell>
        <mxCell id="J7_ryv0EH3ggTm8qYIXI-23" value="" style="rounded=0;whiteSpace=wrap;html=1;fillColor=#FFF2CC;" vertex="1" parent="1">
          <mxGeometry x="190" y="285" width="290" height="100" as="geometry" />
        </mxCell>
        <mxCell id="J7_ryv0EH3ggTm8qYIXI-24" value="" style="edgeStyle=orthogonalEdgeStyle;rounded=0;orthogonalLoop=1;jettySize=auto;html=1;" edge="1" parent="1" source="J7_ryv0EH3ggTm8qYIXI-25" target="J7_ryv0EH3ggTm8qYIXI-27">
          <mxGeometry relative="1" as="geometry" />
        </mxCell>
        <mxCell id="J7_ryv0EH3ggTm8qYIXI-25" value="CSV or XML SDN file" style="rounded=0;whiteSpace=wrap;html=1;" vertex="1" parent="1">
          <mxGeometry x="50" y="295" width="120" height="60" as="geometry" />
        </mxCell>
        <mxCell id="J7_ryv0EH3ggTm8qYIXI-26" value="" style="edgeStyle=orthogonalEdgeStyle;rounded=0;orthogonalLoop=1;jettySize=auto;html=1;" edge="1" parent="1" source="J7_ryv0EH3ggTm8qYIXI-27" target="J7_ryv0EH3ggTm8qYIXI-29">
          <mxGeometry relative="1" as="geometry" />
        </mxCell>
        <mxCell id="J7_ryv0EH3ggTm8qYIXI-27" value="Load Data in Bedrock&lt;div&gt;API&amp;nbsp;&lt;/div&gt;" style="whiteSpace=wrap;html=1;rounded=0;" vertex="1" parent="1">
          <mxGeometry x="200" y="295" width="120" height="60" as="geometry" />
        </mxCell>
        <mxCell id="J7_ryv0EH3ggTm8qYIXI-28" style="edgeStyle=orthogonalEdgeStyle;rounded=0;orthogonalLoop=1;jettySize=auto;html=1;exitX=1;exitY=0.5;exitDx=0;exitDy=0;" edge="1" parent="1" source="J7_ryv0EH3ggTm8qYIXI-29" target="J7_ryv0EH3ggTm8qYIXI-31">
          <mxGeometry relative="1" as="geometry" />
        </mxCell>
        <mxCell id="J7_ryv0EH3ggTm8qYIXI-29" value="Test Data in Bedrock Knowledge Base&lt;div&gt;API&lt;/div&gt;" style="whiteSpace=wrap;html=1;rounded=0;" vertex="1" parent="1">
          <mxGeometry x="350" y="295" width="120" height="60" as="geometry" />
        </mxCell>
        <mxCell id="J7_ryv0EH3ggTm8qYIXI-30" value="Already existing APIs are called - Recon Report" style="text;html=1;align=center;verticalAlign=middle;resizable=0;points=[];autosize=1;strokeColor=none;fillColor=none;" vertex="1" parent="1">
          <mxGeometry x="190" y="355" width="280" height="30" as="geometry" />
        </mxCell>
        <mxCell id="J7_ryv0EH3ggTm8qYIXI-31" value="" style="sketch=0;outlineConnect=0;fontColor=#232F3E;gradientColor=none;fillColor=#C925D1;strokeColor=none;dashed=0;verticalLabelPosition=bottom;verticalAlign=top;align=center;html=1;fontSize=12;fontStyle=0;aspect=fixed;pointerEvents=1;shape=mxgraph.aws4.rds_mysql_instance;" vertex="1" parent="1">
          <mxGeometry x="560" y="286" width="78" height="78" as="geometry" />
        </mxCell>
        <mxCell id="J7_ryv0EH3ggTm8qYIXI-32" value="SDN Data" style="text;html=1;align=center;verticalAlign=middle;resizable=0;points=[];autosize=1;strokeColor=none;fillColor=none;" vertex="1" parent="1">
          <mxGeometry x="480" y="295" width="80" height="30" as="geometry" />
        </mxCell>
        <mxCell id="J7_ryv0EH3ggTm8qYIXI-45" value="" style="endArrow=classic;startArrow=classic;html=1;rounded=0;entryX=0;entryY=0.5;entryDx=0;entryDy=0;exitX=1.054;exitY=0.436;exitDx=0;exitDy=0;exitPerimeter=0;" edge="1" parent="1" source="J7_ryv0EH3ggTm8qYIXI-31">
          <mxGeometry width="50" height="50" relative="1" as="geometry">
            <mxPoint x="420" y="605" as="sourcePoint" />
            <mxPoint x="700" y="320" as="targetPoint" />
          </mxGeometry>
        </mxCell>
        <mxCell id="J7_ryv0EH3ggTm8qYIXI-46" value="SDN Data" style="shape=table;startSize=30;container=1;collapsible=1;childLayout=tableLayout;fixedRows=1;rowLines=0;fontStyle=1;align=center;resizeLast=1;html=1;" vertex="1" parent="1">
          <mxGeometry x="700" y="250" width="120" height="190" as="geometry">
            <mxRectangle x="680" y="15" width="90" height="30" as="alternateBounds" />
          </mxGeometry>
        </mxCell>
        <mxCell id="J7_ryv0EH3ggTm8qYIXI-47" value="" style="shape=tableRow;horizontal=0;startSize=0;swimlaneHead=0;swimlaneBody=0;fillColor=none;collapsible=0;dropTarget=0;points=[[0,0.5],[1,0.5]];portConstraint=eastwest;top=0;left=0;right=0;bottom=1;" vertex="1" parent="J7_ryv0EH3ggTm8qYIXI-46">
          <mxGeometry y="30" width="120" height="30" as="geometry" />
        </mxCell>
        <mxCell id="J7_ryv0EH3ggTm8qYIXI-48" value="PK" style="shape=partialRectangle;connectable=0;fillColor=none;top=0;left=0;bottom=0;right=0;fontStyle=1;overflow=hidden;whiteSpace=wrap;html=1;" vertex="1" parent="J7_ryv0EH3ggTm8qYIXI-47">
          <mxGeometry width="30" height="30" as="geometry">
            <mxRectangle width="30" height="30" as="alternateBounds" />
          </mxGeometry>
        </mxCell>
        <mxCell id="J7_ryv0EH3ggTm8qYIXI-49" value="ID" style="shape=partialRectangle;connectable=0;fillColor=none;top=0;left=0;bottom=0;right=0;align=left;spacingLeft=6;fontStyle=5;overflow=hidden;whiteSpace=wrap;html=1;" vertex="1" parent="J7_ryv0EH3ggTm8qYIXI-47">
          <mxGeometry x="30" width="90" height="30" as="geometry">
            <mxRectangle width="90" height="30" as="alternateBounds" />
          </mxGeometry>
        </mxCell>
        <mxCell id="J7_ryv0EH3ggTm8qYIXI-50" value="" style="shape=tableRow;horizontal=0;startSize=0;swimlaneHead=0;swimlaneBody=0;fillColor=none;collapsible=0;dropTarget=0;points=[[0,0.5],[1,0.5]];portConstraint=eastwest;top=0;left=0;right=0;bottom=0;" vertex="1" parent="J7_ryv0EH3ggTm8qYIXI-46">
          <mxGeometry y="60" width="120" height="20" as="geometry" />
        </mxCell>
        <mxCell id="J7_ryv0EH3ggTm8qYIXI-51" value="" style="shape=partialRectangle;connectable=0;fillColor=none;top=0;left=0;bottom=0;right=0;editable=1;overflow=hidden;whiteSpace=wrap;html=1;" vertex="1" parent="J7_ryv0EH3ggTm8qYIXI-50">
          <mxGeometry width="30" height="20" as="geometry">
            <mxRectangle width="30" height="20" as="alternateBounds" />
          </mxGeometry>
        </mxCell>
        <mxCell id="J7_ryv0EH3ggTm8qYIXI-52" value="Name" style="shape=partialRectangle;connectable=0;fillColor=none;top=0;left=0;bottom=0;right=0;align=left;spacingLeft=6;overflow=hidden;whiteSpace=wrap;html=1;" vertex="1" parent="J7_ryv0EH3ggTm8qYIXI-50">
          <mxGeometry x="30" width="90" height="20" as="geometry">
            <mxRectangle width="90" height="20" as="alternateBounds" />
          </mxGeometry>
        </mxCell>
        <mxCell id="J7_ryv0EH3ggTm8qYIXI-53" value="" style="shape=tableRow;horizontal=0;startSize=0;swimlaneHead=0;swimlaneBody=0;fillColor=none;collapsible=0;dropTarget=0;points=[[0,0.5],[1,0.5]];portConstraint=eastwest;top=0;left=0;right=0;bottom=0;" vertex="1" parent="J7_ryv0EH3ggTm8qYIXI-46">
          <mxGeometry y="80" width="120" height="30" as="geometry" />
        </mxCell>
        <mxCell id="J7_ryv0EH3ggTm8qYIXI-54" value="" style="shape=partialRectangle;connectable=0;fillColor=none;top=0;left=0;bottom=0;right=0;editable=1;overflow=hidden;whiteSpace=wrap;html=1;" vertex="1" parent="J7_ryv0EH3ggTm8qYIXI-53">
          <mxGeometry width="30" height="30" as="geometry">
            <mxRectangle width="30" height="30" as="alternateBounds" />
          </mxGeometry>
        </mxCell>
        <mxCell id="J7_ryv0EH3ggTm8qYIXI-55" value="Filename" style="shape=partialRectangle;connectable=0;fillColor=none;top=0;left=0;bottom=0;right=0;align=left;spacingLeft=6;overflow=hidden;whiteSpace=wrap;html=1;" vertex="1" parent="J7_ryv0EH3ggTm8qYIXI-53">
          <mxGeometry x="30" width="90" height="30" as="geometry">
            <mxRectangle width="90" height="30" as="alternateBounds" />
          </mxGeometry>
        </mxCell>
        <mxCell id="J7_ryv0EH3ggTm8qYIXI-56" value="" style="shape=tableRow;horizontal=0;startSize=0;swimlaneHead=0;swimlaneBody=0;fillColor=none;collapsible=0;dropTarget=0;points=[[0,0.5],[1,0.5]];portConstraint=eastwest;top=0;left=0;right=0;bottom=0;" vertex="1" parent="J7_ryv0EH3ggTm8qYIXI-46">
          <mxGeometry y="110" width="120" height="35" as="geometry" />
        </mxCell>
        <mxCell id="J7_ryv0EH3ggTm8qYIXI-57" value="" style="shape=partialRectangle;connectable=0;fillColor=none;top=0;left=0;bottom=0;right=0;editable=1;overflow=hidden;whiteSpace=wrap;html=1;" vertex="1" parent="J7_ryv0EH3ggTm8qYIXI-56">
          <mxGeometry width="30" height="35" as="geometry">
            <mxRectangle width="30" height="35" as="alternateBounds" />
          </mxGeometry>
        </mxCell>
        <mxCell id="J7_ryv0EH3ggTm8qYIXI-58" value="Start Date = today" style="shape=partialRectangle;connectable=0;fillColor=none;top=0;left=0;bottom=0;right=0;align=left;spacingLeft=6;overflow=hidden;whiteSpace=wrap;html=1;" vertex="1" parent="J7_ryv0EH3ggTm8qYIXI-56">
          <mxGeometry x="30" width="90" height="35" as="geometry">
            <mxRectangle width="90" height="35" as="alternateBounds" />
          </mxGeometry>
        </mxCell>
        <mxCell id="J7_ryv0EH3ggTm8qYIXI-59" value="End Date = today" style="shape=partialRectangle;connectable=0;fillColor=none;top=0;left=0;bottom=0;right=0;align=left;spacingLeft=6;overflow=hidden;whiteSpace=wrap;html=1;" vertex="1" parent="1">
          <mxGeometry x="730" y="395" width="90" height="40" as="geometry">
            <mxRectangle width="90" height="30" as="alternateBounds" />
          </mxGeometry>
        </mxCell>
        <mxCell id="J7_ryv0EH3ggTm8qYIXI-60" value="" style="endArrow=none;html=1;rounded=0;exitX=0.25;exitY=1;exitDx=0;exitDy=0;" edge="1" parent="1" source="J7_ryv0EH3ggTm8qYIXI-46">
          <mxGeometry width="50" height="50" relative="1" as="geometry">
            <mxPoint x="420" y="605" as="sourcePoint" />
            <mxPoint x="730" y="395" as="targetPoint" />
          </mxGeometry>
        </mxCell>
        <mxCell id="J7_ryv0EH3ggTm8qYIXI-61" value="&lt;b&gt;Checking if the data was present on particular date:&lt;/b&gt;" style="text;html=1;align=center;verticalAlign=middle;resizable=0;points=[];autosize=1;strokeColor=none;fillColor=none;" vertex="1" parent="1">
          <mxGeometry x="35" y="458" width="320" height="30" as="geometry" />
        </mxCell>
        <mxCell id="J7_ryv0EH3ggTm8qYIXI-64" style="edgeStyle=orthogonalEdgeStyle;rounded=0;orthogonalLoop=1;jettySize=auto;html=1;exitX=1;exitY=0.5;exitDx=0;exitDy=0;" edge="1" parent="1" source="J7_ryv0EH3ggTm8qYIXI-62" target="J7_ryv0EH3ggTm8qYIXI-63">
          <mxGeometry relative="1" as="geometry" />
        </mxCell>
        <mxCell id="J7_ryv0EH3ggTm8qYIXI-62" value="Name and date that needs to be checked (eg: Laden, 04/15/2025)" style="rounded=0;whiteSpace=wrap;html=1;" vertex="1" parent="1">
          <mxGeometry x="50" y="515" width="130" height="70" as="geometry" />
        </mxCell>
        <mxCell id="J7_ryv0EH3ggTm8qYIXI-67" style="edgeStyle=orthogonalEdgeStyle;rounded=0;orthogonalLoop=1;jettySize=auto;html=1;" edge="1" parent="1" source="J7_ryv0EH3ggTm8qYIXI-63" target="J7_ryv0EH3ggTm8qYIXI-66">
          <mxGeometry relative="1" as="geometry" />
        </mxCell>
        <mxCell id="J7_ryv0EH3ggTm8qYIXI-63" value="" style="sketch=0;outlineConnect=0;fontColor=#232F3E;gradientColor=none;fillColor=#C925D1;strokeColor=none;dashed=0;verticalLabelPosition=bottom;verticalAlign=top;align=center;html=1;fontSize=12;fontStyle=0;aspect=fixed;pointerEvents=1;shape=mxgraph.aws4.rds_mysql_instance;" vertex="1" parent="1">
          <mxGeometry x="272" y="511" width="78" height="78" as="geometry" />
        </mxCell>
        <mxCell id="J7_ryv0EH3ggTm8qYIXI-65" value="Extract details" style="text;html=1;align=center;verticalAlign=middle;resizable=0;points=[];autosize=1;strokeColor=none;fillColor=none;" vertex="1" parent="1">
          <mxGeometry x="172" y="528" width="100" height="30" as="geometry" />
        </mxCell>
        <mxCell id="J7_ryv0EH3ggTm8qYIXI-70" value="" style="edgeStyle=orthogonalEdgeStyle;rounded=0;orthogonalLoop=1;jettySize=auto;html=1;" edge="1" parent="1" source="J7_ryv0EH3ggTm8qYIXI-66">
          <mxGeometry relative="1" as="geometry">
            <mxPoint x="540" y="550" as="targetPoint" />
          </mxGeometry>
        </mxCell>
        <mxCell id="J7_ryv0EH3ggTm8qYIXI-66" value="" style="shadow=0;dashed=0;html=1;strokeColor=none;fillColor=#4495D1;labelPosition=center;verticalLabelPosition=bottom;verticalAlign=top;align=center;outlineConnect=0;shape=mxgraph.veeam.2d.web_ui;" vertex="1" parent="1">
          <mxGeometry x="430" y="520" width="60" height="60" as="geometry" />
        </mxCell>
        <mxCell id="J7_ryv0EH3ggTm8qYIXI-68" value="Web UI" style="text;html=1;align=center;verticalAlign=middle;resizable=0;points=[];autosize=1;strokeColor=none;fillColor=none;" vertex="1" parent="1">
          <mxGeometry x="435" y="585" width="60" height="30" as="geometry" />
        </mxCell>
        <mxCell id="J7_ryv0EH3ggTm8qYIXI-71" value="Result:&amp;nbsp;&lt;div&gt;{name: Laden,&lt;div&gt;&amp;nbsp;date: 04/15/2025,&lt;div&gt;active/present: yes/no}&lt;/div&gt;&lt;/div&gt;&lt;/div&gt;" style="rounded=0;whiteSpace=wrap;html=1;" vertex="1" parent="1">
          <mxGeometry x="539" y="500" width="201" height="85" as="geometry" />
        </mxCell>
      </root>
    </mxGraphModel>
  </diagram>
</mxfile>
